<?xml version="1.0" encoding="UTF-8" standalone="no"?>
<!-- Generator: Adobe Illustrator 15.0.0, SVG Export Plug-In . SVG Version: 6.00 Build 0)  -->

<svg
   xmlns:dc="http://purl.org/dc/elements/1.1/"
   xmlns:cc="http://creativecommons.org/ns#"
   xmlns:rdf="http://www.w3.org/1999/02/22-rdf-syntax-ns#"
   xmlns:svg="http://www.w3.org/2000/svg"
   xmlns="http://www.w3.org/2000/svg"
   xmlns:sodipodi="http://sodipodi.sourceforge.net/DTD/sodipodi-0.dtd"
   xmlns:inkscape="http://www.inkscape.org/namespaces/inkscape"
   version="1.1"
   id="Layer_1"
   x="0px"
   y="0px"
   width="495.99939"
   height="477.62903"
   viewBox="0 0 495.9994 477.62902"
   enable-background="new 0 0 1526.152 453.074"
   xml:space="preserve"
   inkscape:version="0.47 r22583"
   sodipodi:docname="Bar-Ilan_University_logo.svg"><metadata
   id="metadata25"><rdf:RDF><cc:Work
       rdf:about=""><dc:format>image/svg+xml</dc:format><dc:type
         rdf:resource="http://purl.org/dc/dcmitype/StillImage" /></cc:Work></rdf:RDF></metadata><defs
   id="defs23"><inkscape:perspective
     sodipodi:type="inkscape:persp3d"
     inkscape:vp_x="0 : 226.537 : 1"
     inkscape:vp_y="0 : 1000 : 0"
     inkscape:vp_z="1526.152 : 226.537 : 1"
     inkscape:persp3d-origin="763.07599 : 151.02467 : 1"
     id="perspective27" /></defs><sodipodi:namedview
   pagecolor="#ffffff"
   bordercolor="#666666"
   borderopacity="1"
   objecttolerance="10"
   gridtolerance="10"
   guidetolerance="10"
   inkscape:pageopacity="0"
   inkscape:pageshadow="2"
   inkscape:window-width="1280"
   inkscape:window-height="660"
   id="namedview21"
   showgrid="false"
   inkscape:zoom="0.70766216"
   inkscape:cx="572.27676"
   inkscape:cy="240.66802"
   inkscape:window-x="-4"
   inkscape:window-y="-4"
   inkscape:window-maximized="1"
   inkscape:current-layer="Layer_1" />
<g
   id="g3"
   transform="translate(9.8917255,10.424003)">
	<path
   d="m 341.172,38.364 c -1.629,3.46 -5.491,3.631 -11.556,2.142 1.086,-4.254 5.672,-8.363 9.443,-6.592 1.549,0.719 3.008,2.554 2.113,4.45 m 6.256,3.048 c 2.303,-4.913 -2.313,-9.137 -6.205,-10.968 -7.755,-3.646 -14.191,-0.186 -17.329,6.497 -3.54,7.528 -0.805,14.222 6.014,17.435 3.188,1.493 6.356,1.906 9.585,1.111 0.07,-0.729 0.383,-2.746 0.081,-3.973 -3.359,0.855 -5.301,0.483 -7.252,-0.432 -3.802,-1.795 -3.892,-5.19 -3.61,-7.498 7.16,2.017 16.372,2.791 18.716,-2.172 m -31.842,3.223 c -0.021,-0.734 0.04,-2.781 -0.402,-3.958 -2.705,1.021 -5.069,1.167 -7.11,0.498 -4.415,-1.453 -5.633,-6.08 -4.003,-11.013 1.629,-4.974 5.351,-7.971 9.766,-6.518 2.041,0.679 3.842,2.243 5.431,4.622 1.057,-0.679 2.203,-2.313 2.655,-2.881 -1.78,-2.902 -4.969,-4.943 -8.308,-6.035 -6.668,-2.192 -13.255,1.102 -15.78,8.765 -2.514,7.628 0.846,14.191 7.503,16.374 3.328,1.101 7.11,1.368 10.248,0.146 m -26.633,-6.2 2.756,-16.017 c 1.076,-6.361 -1.659,-9.474 -6.296,-10.269 -4.193,-0.709 -7.201,0.312 -9.081,2.329 l 0.513,-3.048 -6.316,-1.081 -4.134,24.224 6.316,1.081 2.927,-17.178 c 1.116,-1.846 3.077,-3.399 6.256,-2.851 2.796,0.482 4.033,2.831 3.43,6.341 l -2.636,15.388 6.265,1.081 z M 254.698,15.353 c -0.171,3.812 -3.671,5.481 -9.837,6.426 -0.644,-4.334 2.002,-9.896 6.166,-9.72 1.709,0.081 3.761,1.192 3.671,3.294 m 6.94,0.412 c 0.231,-5.426 -5.643,-7.548 -9.947,-7.744 -8.559,-0.372 -13.165,5.305 -13.497,12.688 -0.361,8.313 4.747,13.432 12.291,13.758 3.51,0.156 6.587,-0.689 9.263,-2.665 -0.212,-0.699 -0.704,-2.68 -1.448,-3.696 -2.796,2.092 -4.717,2.489 -6.859,2.399 -4.214,-0.186 -5.592,-3.284 -6.235,-5.521 7.39,-0.906 16.18,-3.748 16.432,-9.219 M 232.22,33.471 230.309,0 l -6.396,0.367 1.911,33.471 6.396,-0.367 z m -13.286,0.946 -4.445,-33.225 -6.347,0.845 4.456,33.235 6.336,-0.855 z m -22.79,-14.911 c 0.784,3.736 -2.183,6.221 -7.915,8.68 -1.71,-4.038 -0.543,-10.093 3.529,-10.947 1.68,-0.363 3.943,0.216 4.386,2.267 m 6.819,-1.342 c -1.137,-5.311 -7.353,-5.899 -11.566,-5.004 -8.378,1.77 -11.426,8.423 -9.887,15.655 1.72,8.136 7.955,11.813 15.328,10.258 3.449,-0.734 6.205,-2.318 8.307,-4.913 -0.382,-0.619 -1.357,-2.409 -2.323,-3.213 -2.172,2.721 -3.942,3.596 -6.044,4.038 -4.124,0.875 -6.236,-1.78 -7.413,-3.792 6.919,-2.72 14.734,-7.673 13.598,-13.029 m -23.314,21.835 c -0.463,-0.553 -1.71,-2.183 -2.786,-2.831 -1.469,2.494 -3.219,4.088 -5.24,4.837 -4.345,1.64 -8.187,-1.212 -10.007,-6.064 -1.851,-4.903 -0.825,-9.575 3.53,-11.204 2.012,-0.754 4.395,-0.659 7.131,0.196 0.382,-1.187 0.262,-3.183 0.251,-3.913 -3.198,-1.146 -6.96,-0.734 -10.259,0.503 -6.557,2.459 -9.635,9.157 -6.799,16.726 2.826,7.508 9.545,10.525 16.103,8.066 3.299,-1.237 6.406,-3.4 8.076,-6.316 m -22.901,10.806 -13.175,-6.19 c -0.654,-0.271 -0.915,-0.91 -0.825,-1.569 l 2.133,-13.758 -6.377,3.339 -0.915,9.535 -8.448,-4.632 -5.984,3.128 12.26,6.12 c 0.725,0.337 1.006,1.081 0.905,1.625 l -2.373,14.337 6.497,-3.399 1.006,-9.917 9.062,4.657 6.234,-3.276 z m -26.662,12.2 c -0.442,-0.639 -0.915,-1.328 -1.448,-1.84 l -10.118,6.97 c -0.442,0.302 -0.653,0.156 -0.885,-0.161 l -5.662,-8.222 7.653,-5.28 c -0.433,-0.714 -0.604,-0.95 -1.106,-1.68 -0.442,-0.639 -0.885,-1.287 -1.377,-1.835 l -7.624,5.255 -5.22,-7.573 c -0.241,-0.367 -0.312,-0.629 0.131,-0.925 l 10.117,-6.98 c -0.291,-0.684 -0.764,-1.373 -1.207,-2.012 -0.502,-0.729 -0.633,-0.925 -1.187,-1.624 l -13.055,9.001 c -2.011,1.388 -2.202,3.253 -0.733,5.386 l 14.473,20.985 c 1.468,2.132 3.288,2.61 5.29,1.227 l 13.064,-9.012 c -0.463,-0.749 -0.603,-0.946 -1.106,-1.68 m -51.484,2.208 c -1.86,0.02 -4.324,0.638 -6.789,3.148 -4.003,4.098 -1.78,8.745 1.408,11.868 l 17.892,17.525 4.485,-4.571 -11.636,-11.41 2.836,-2.907 c -0.393,-0.855 -1.649,-2.987 -2.243,-3.57 l -3.53,3.601 -4.405,-4.315 c -1.187,-1.162 -2.071,-3.188 -0.774,-4.531 1.277,-1.287 2.555,-1.192 3.279,-1.308 0.061,-1.112 -0.201,-2.665 -0.523,-3.53 m -5.099,33.818 c 3.962,3.193 5.712,7.573 2.946,10.993 -2.796,3.47 -7.412,2.635 -11.365,-0.568 -3.922,-3.173 -5.712,-7.508 -2.907,-10.968 2.767,-3.42 7.403,-2.625 11.326,0.543 m 4.134,-5.034 c -6.356,-5.139 -13.789,-4.038 -18.617,1.936 -4.838,5.984 -4.385,13.512 1.971,18.652 6.467,5.229 13.778,3.973 18.616,-2.012 4.829,-5.969 4.497,-13.346 -1.97,-18.576 M 59.754,139.899 45.06,132.974 c -5.853,-2.746 -9.564,-0.935 -11.576,3.319 -1.8,3.852 -1.629,7.025 -0.181,9.374 l -2.796,-1.308 -2.726,5.798 22.227,10.459 2.726,-5.798 -15.76,-7.423 c -1.479,-1.559 -2.454,-3.862 -1.076,-6.789 1.207,-2.564 3.802,-3.118 7.02,-1.604 l 14.131,6.653 2.705,-5.756 z m -25.505,28.076 c 4.828,1.584 8.026,5.054 6.638,9.238 -1.388,4.229 -6.004,5.084 -10.832,3.49 -4.788,-1.574 -7.986,-4.994 -6.598,-9.228 1.377,-4.184 6.004,-5.089 10.792,-3.5 m 2.081,-6.17 c -7.764,-2.555 -14.332,1.101 -16.726,8.393 -2.414,7.302 0.684,14.191 8.438,16.746 7.915,2.604 14.302,-1.162 16.695,-8.463 2.415,-7.293 -0.502,-14.082 -8.407,-16.676 m 2.686,34.532 -24.108,-4.747 -1.237,6.291 24.108,4.747 1.237,-6.291 z m -30.565,-6.17 c -1.881,-0.362 -3.661,0.835 -4.023,2.701 -0.362,1.871 0.814,3.706 2.695,4.068 1.871,0.367 3.701,-0.854 4.073,-2.73 0.373,-1.877 -0.874,-3.667 -2.745,-4.039 m 26.622,16.725 c -0.916,0.277 -2.303,1.051 -3.118,1.79 0.352,0.639 1.288,1.589 1.066,3.39 -0.231,1.846 -2.364,2.429 -4.063,2.228 l -13.376,-1.609 0.502,-4.088 c -0.664,-0.669 -2.735,-1.504 -3.932,-1.8 l -0.644,5.396 -8.891,-1.061 c 0.05,2.027 0.583,4.642 1.851,6.673 l 22.217,2.665 c 4.476,0.538 9.484,-0.639 10.168,-6.321 0.423,-3.491 -0.624,-5.8 -1.78,-7.263 m -0.352,21.699 -24.541,-1.082 -0.292,6.407 24.55,1.071 0.283,-6.396 z M 3.573,227.078 c -1.901,-0.091 -3.48,1.357 -3.57,3.264 -0.081,1.906 1.368,3.535 3.278,3.615 1.901,0.096 3.541,-1.398 3.621,-3.304 0.08,-1.906 -1.408,-3.49 -3.329,-3.575 m 18.787,21.93 c 5.18,-0.302 9.193,1.961 9.384,5.381 0.181,3.369 -3.53,6.084 -8.7,6.376 -5.23,0.312 -8.549,-1.961 -8.75,-5.381 -0.19,-3.419 2.837,-6.074 8.066,-6.376 m 11.808,-7.895 c -0.905,0.453 -3.953,1.207 -6.738,1.378 l -26.673,1.519 0.362,6.407 12.311,-0.704 c -2.384,2.042 -3.219,4.536 -3.078,6.98 0.332,5.813 4.999,11.083 13.064,10.621 8.006,-0.453 12.733,-6.166 12.401,-12.079 -0.191,-3.168 -2.183,-5.461 -4.546,-6.547 1.066,-0.061 2.273,-0.422 3.289,-0.825 l -0.392,-6.75 z m -6.638,39.043 c 4.304,-0.915 8.025,1.76 8.74,5.099 0.422,1.971 -0.694,3.098 -2.374,3.46 -1.77,0.372 -4.405,0.432 -6.437,-2.998 -0.624,-1.066 -2.524,-3.409 -3.761,-4.747 l 3.832,-0.814 z m 8.8,-9.464 c -1.8,1.136 -4.908,2.333 -6.487,2.675 l -9.001,1.911 c -7.372,1.549 -7.965,7.241 -7,11.828 0.734,3.46 2.544,7.523 5.189,10.108 0.745,-0.312 2.454,-1.418 3.219,-2.323 -1.579,-1.328 -3.349,-3.742 -3.963,-6.668 -0.674,-3.168 -0.211,-5.209 1.74,-5.723 1.177,-0.302 2.363,1.046 3.691,3.561 3.782,7.161 7.814,9.655 12.602,8.639 3.017,-0.633 5.26,-3.711 4.465,-7.442 -0.624,-2.967 -1.328,-6.276 -6.749,-8.479 0.966,-0.201 2.836,-1.046 3.661,-1.629 l -1.367,-6.458 z m -17.751,33.994 c -0.03,1.247 0.161,2.534 0.573,3.741 1.046,2.997 3.601,4.707 6.165,5.059 -1.016,0.362 -2.082,1.036 -2.937,1.7 l 2.202,6.376 c 0.754,-0.684 3.47,-2.253 6.115,-3.158 l 16.786,-5.833 -2.102,-6.055 -11.646,4.053 c -4.908,1.7 -9.313,0.795 -10.439,-2.444 -0.402,-1.167 -0.785,-2.575 -0.302,-3.882 -1.911,-0.12 -2.796,0.041 -4.415,0.443 m 1.619,24.982 c -0.805,0.362 -1.157,0.533 -1.911,0.986 l 10.47,22.649 c 0.825,-0.312 1.187,-0.483 1.981,-0.845 0.704,-0.332 1.378,-0.644 2.001,-1.026 l -3.922,-8.509 26.471,-12.23 -2.836,-6.135 -26.471,12.24 -3.681,-7.956 c -0.724,0.183 -1.388,0.495 -2.102,0.826"
   id="path5"
   style="fill:#42494c" />
	<path
   d="m 454.218,239.991 c 0,-62.678 -27.064,-119.035 -70.15,-158.028 34.215,37.811 55.074,87.942 55.074,142.952 0,117.688 -95.415,213.083 -213.098,213.083 -55.004,0 -105.13,-20.849 -142.937,-55.064 38.993,43.076 95.335,70.141 158.023,70.141 117.693,-10e-4 213.088,-95.407 213.088,-213.084"
   id="path7"
   style="fill:#d27228" />
	<path
   d="m 387.135,329.136 6.487,-36.8 c 0,0 1.056,-6.035 -4.979,-6.035 h -13.075 c 0.04,-1.649 0.081,-3.339 0.091,-5.049 0,-62.809 -37.042,-116.918 -90.437,-141.8 l -24.179,41.875 c 0,0 -3.007,5.225 2.575,7.508 31.711,12.989 58.012,49.613 58.012,92.418 0,1.71 -0.212,3.359 -0.303,5.049 H 216.379 c 0,0 -6.034,0 -7.101,6.035 l -6.487,36.8 c 0,0 -1.065,6.034 4.969,6.034 h 172.274 c 0,-10e-4 6.034,-10e-4 7.101,-6.035"
   id="path9"
   style="fill:#42494c" />
	<path
   d="M 119.174,171.555 C 93.175,196.96 74.87,233.514 72.326,274.413 h 48.165 c 0,0 6.044,0 6.607,-6.004 1.941,-20.266 12.331,-40.2 26.884,-55.392 l -34.808,-41.462 z"
   id="path11"
   style="fill:#42494c" />
	<path
   d="m 143.302,110.964 c 0,0 -3.883,-4.626 -9.183,-1.559 l -32.365,18.682 c 0,0 -5.3,3.063 -1.428,7.689 l 115.47,137.601 c 0,0 3.882,4.626 9.183,1.559 l 32.364,-18.687 c 0,0 5.311,-3.057 1.429,-7.684 L 143.302,110.964 z"
   id="path13"
   style="fill:#42494c" />
	<path
   d="m 284.961,88.023 -12.28,-7.085 2.716,-4.687 c 0,0 2.232,-3.862 -1.63,-6.084 l -0.704,-0.402 c 0,0 -3.861,-2.233 -6.084,1.629 l -2.706,4.687 -1.388,-0.794 c 0,0 -5.22,-3.017 -8.237,2.203 l -48.497,83.99 c 0,0 -3.018,5.23 2.213,8.247 l 1.388,0.795 -2.716,4.697 c 0,0 -2.223,3.852 1.63,6.075 l 0.714,0.412 c 0,0 3.853,2.223 6.075,-1.639 l 2.705,-4.687 12.28,7.085 -2.716,4.687 c 0,0 -2.223,3.862 1.63,6.09 l 0.703,0.397 c 0,0 3.862,2.238 6.085,-1.624 l 2.706,-4.687 1.388,0.795 c 0,0 5.229,3.017 8.237,-2.208 L 296.97,101.93 c 0,0 3.017,-5.229 -2.203,-8.247 l -1.397,-0.794 2.715,-4.697 c 0,0 2.223,-3.852 -1.629,-6.075 l -0.704,-0.413 c 0,0 -3.862,-2.228 -6.085,1.635 l -2.706,4.684 z"
   id="path15"
   style="fill:#42494c" />
	<path
   d="m 1458.134,148.523 24.862,62.432 c 0.834,1.679 0.975,2.655 0.975,3.354 0,0.834 -0.422,1.815 -1.126,3.072 -2.363,4.602 -6.135,8.66 -9.343,10.751 -3.5,2.515 -7.131,4.048 -10.068,4.748 l 3.912,14.538 c 4.325,-0.573 11.325,-2.806 18.023,-8.81 8.097,-6.985 14.383,-18.294 23.736,-43.72 l 17.047,-46.365 h -18.445 l -10.601,36.313 c -1.257,4.471 -2.515,9.495 -3.641,13.412 h -0.423 c -0.976,-3.917 -2.363,-9.087 -3.771,-13.266 l -12.28,-36.458 h -18.857 z m -36.911,-12.576 v 12.577 h -9.786 v 12.854 h 9.786 v 31.978 c 0,8.936 1.67,15.086 5.301,18.999 3.218,3.495 8.519,5.728 14.814,5.728 5.441,0 9.906,-0.845 12.431,-1.82 l -0.292,-13.125 c -1.951,0.558 -3.489,0.834 -6.697,0.834 -6.568,0 -8.801,-4.325 -8.801,-12.572 v -30.021 h 16.344 v -12.854 h -16.344 v -17.459 l -16.756,4.881 z m -25.848,-15.775 c -5.723,0 -9.635,4.043 -9.635,9.358 0,5.159 3.771,9.217 9.494,9.217 6.004,0 9.786,-4.058 9.786,-9.217 -0.141,-5.315 -3.782,-9.358 -9.645,-9.358 m 8.67,28.351 h -17.329 v 68.024 h 17.329 v -68.024 z m -75.563,64.665 c 5.02,2.791 12.432,4.893 20.669,4.893 18.013,0 27.647,-9.082 27.647,-21.372 -0.131,-10.058 -5.854,-16.343 -18.153,-20.814 -8.659,-3.067 -11.878,-5.169 -11.878,-9.494 0,-4.189 3.359,-7.126 9.504,-7.126 6.004,0 11.455,2.233 14.393,3.913 l 3.349,-12.149 c -3.912,-2.092 -10.479,-4.048 -18.013,-4.048 -15.79,0 -25.707,9.349 -25.707,21.367 -0.131,7.96 5.441,15.222 18.707,19.838 8.389,2.922 11.174,5.3 11.174,9.907 0,4.47 -3.339,7.548 -10.882,7.548 -6.146,0 -13.558,-2.514 -17.47,-4.893 l -3.34,12.43 z m -41.345,3.359 h 17.178 v -35.201 c 0,-1.956 0.282,-3.771 0.563,-5.305 1.528,-7.684 7.121,-13 15.358,-13 2.092,0 3.63,0.282 5.028,0.568 v -16.208 c -1.398,-0.282 -2.363,-0.413 -4.043,-0.413 -7.262,0 -15.228,4.878 -18.587,14.518 h -0.553 l -0.553,-12.984 h -14.956 c 0.423,6.146 0.563,12.708 0.563,21.925 v 46.1 z m -39.949,-57.83 c -10.62,0 -15.086,9.64 -15.78,16.625 h 29.891 c 0.131,-6.281 -2.655,-16.625 -14.111,-16.625 m 29.75,28.634 h -45.53 c 0.412,12.295 10.058,17.601 20.949,17.601 7.966,0 13.688,-1.122 18.858,-3.073 l 2.515,11.868 c -5.874,2.379 -13.971,4.335 -23.746,4.335 -22.066,0 -35.061,-13.688 -35.061,-34.502 0,-18.858 11.456,-36.589 33.24,-36.589 22.207,0 29.338,18.154 29.338,33.099 10e-4,3.212 -0.281,5.727 -0.563,7.261 m -130.304,-38.828 25.274,68.024 h 16.896 l 25.988,-68.024 h -18.163 l -10.762,34.502 c -1.811,6.135 -3.349,11.45 -4.597,17.032 h -0.422 c -1.258,-5.582 -2.666,-11.028 -4.606,-17.032 l -11.043,-34.502 h -18.565 z m -15.238,-28.351 c -5.723,0 -9.625,4.043 -9.625,9.358 0,5.159 3.771,9.217 9.494,9.217 6.005,0 9.776,-4.058 9.776,-9.217 -0.14,-5.315 -3.77,-9.358 -9.645,-9.358 m 8.661,28.351 h -17.319 v 68.024 h 17.319 v -68.024 z m -93.012,68.024 h 17.319 v -39.948 c 0,-1.956 0.13,-4.048 0.704,-5.592 1.81,-5.165 6.557,-10.053 13.406,-10.053 9.354,0 12.984,7.402 12.984,17.178 v 38.415 h 17.178 v -40.371 c 0,-21.508 -12.29,-29.187 -24.158,-29.187 -11.314,0 -18.727,6.427 -21.644,11.727 h -0.422 l -0.835,-10.193 h -15.097 c 0.423,5.869 0.563,12.431 0.563,20.246 v 47.778 z m -84,-94.143 v 53.913 c 0,29.609 14.11,41.764 35.905,41.764 22.619,0 37.564,-12.854 37.564,-41.904 v -53.772 h -17.178 v 54.894 c 0,18.436 -7.402,26.954 -19.834,26.954 -11.596,0 -19.28,-8.519 -19.28,-26.954 v -54.894 h -17.177 z m -105.251,94.143 h 17.318 v -39.948 c 0,-1.956 0.142,-4.048 0.704,-5.592 1.811,-5.165 6.558,-10.053 13.407,-10.053 9.353,0 12.983,7.402 12.983,17.178 v 38.415 h 17.179 v -40.371 c 0,-21.508 -12.28,-29.187 -24.158,-29.187 -11.314,0 -18.717,6.427 -21.653,11.727 h -0.423 l -0.825,-10.193 H 857.23 c 0.422,5.869 0.563,12.431 0.563,20.246 v 47.778 z M 829.2,192.651 c 0,1.126 -0.131,2.524 -0.553,3.782 -1.539,4.883 -6.567,9.353 -13.407,9.353 -5.451,0 -9.775,-3.072 -9.775,-9.776 0,-10.339 11.596,-12.984 23.735,-12.708 v 9.349 z m 17.741,23.896 c -0.693,-4.194 -0.976,-10.198 -0.976,-16.343 v -24.585 c 0,-14.81 -6.286,-28.629 -28.07,-28.629 -10.751,0 -19.562,2.932 -24.591,6.004 l 3.359,11.174 c 4.606,-2.937 11.587,-5.029 18.295,-5.029 12.009,0 13.829,7.397 13.829,11.868 v 1.121 c -25.134,-0.146 -40.371,8.519 -40.371,25.697 0,10.339 7.685,20.256 21.372,20.256 8.801,0 15.921,-3.771 20.115,-9.082 h 0.423 l 1.106,7.548 h 15.509 z m -101.117,0 h -17.179 v -94.143 h 17.179 v 94.143 z m -27.085,-31.289 h -35.613 v -11.873 h 35.613 v 11.873 z m -75.713,-14.809 c 0,-9.217 -0.141,-15.78 -0.553,-21.925 h 14.945 l 0.553,12.984 h 0.554 c 3.359,-9.64 11.324,-14.518 18.586,-14.518 1.68,0 2.655,0.131 4.043,0.413 v 16.208 c -1.388,-0.287 -2.927,-0.568 -5.028,-0.568 -8.237,0 -13.819,5.315 -15.358,13 -0.281,1.534 -0.563,3.349 -0.563,5.305 v 35.201 h -17.179 v -46.1 z m -30.714,22.202 c 0,1.126 -0.151,2.524 -0.573,3.782 -1.529,4.883 -6.558,9.353 -13.407,9.353 -5.451,0 -9.775,-3.072 -9.775,-9.776 0,-10.339 11.596,-12.984 23.756,-12.708 v 9.349 z m 17.731,23.896 c -0.705,-4.194 -0.977,-10.198 -0.977,-16.343 v -24.585 c 0,-14.81 -6.285,-28.629 -28.08,-28.629 -10.751,0 -19.552,2.932 -24.58,6.004 l 3.359,11.174 c 4.605,-2.937 11.586,-5.029 18.284,-5.029 12.019,0 13.839,7.397 13.839,11.868 v 1.121 c -25.144,-0.146 -40.371,8.519 -40.371,25.697 0,10.339 7.674,20.256 21.362,20.256 8.811,0 15.941,-3.771 20.115,-9.082 h 0.423 l 1.126,7.548 h 15.5 z M 527.104,134.413 c -5.029,0 -7.956,0.276 -9.776,0.699 v 25.697 h 8.801 c 11.867,0 18.576,-5.582 18.576,-13.542 0,-8.806 -6.709,-12.854 -17.601,-12.854 m -9.776,69.703 c 2.243,0.413 5.17,0.413 9.072,0.413 11.043,0 20.818,-4.194 20.818,-15.78 0,-10.897 -9.494,-15.363 -21.371,-15.363 h -8.52 v 30.73 z m 29.057,-38.414 v 0.277 c 9.916,2.514 18.988,10.339 18.988,23.328 0,8.383 -3.631,14.945 -9.072,19.411 -6.698,5.874 -17.741,8.795 -34.919,8.795 -9.494,0 -16.756,-0.689 -21.091,-1.252 v -92.599 c 5.441,-1.122 15.357,-1.956 25.003,-1.956 12.702,0 20.527,1.534 26.954,6.004 5.863,3.49 9.786,9.64 9.786,17.6 0,8.66 -5.451,16.62 -15.649,20.392 m 210.803,44.745 c 0,0 0.061,6.1 6.417,6.1 h 12.17 v -0.03 h 10.812 l -5.833,-13.401 h -6.256 v -85.675 h -17.31 v 93.006"
   id="path17"
   style="fill:#42494c" />
	<path
   d="m 1524.734,332.143 -21.292,-27.638 c 12.421,-5.713 18.626,-17.45 18.626,-35.181 v -9.011 h -18.767 v 16.112 c 0,5.713 -0.644,10.299 -1.931,13.739 -1.177,2.957 -2.515,4.425 -3.983,4.425 -0.995,0 -1.881,-0.483 -2.665,-1.469 l -24.832,-32.807 h -18.918 c -0.996,0 -1.479,0.281 -1.479,0.885 0,0.393 0.151,0.785 0.442,1.187 l 21.282,27.919 c -12.32,5.632 -18.476,17.349 -18.476,35.181 v 9.031 h 18.626 v -16.122 c 0,-5.803 0.694,-10.389 2.072,-13.749 1.086,-2.957 2.464,-4.425 4.144,-4.425 0.784,0 1.559,0.493 2.354,1.469 l 24.831,32.827 h 18.777 c 1.188,0 1.771,-0.302 1.771,-0.905 10e-4,-0.191 -0.2,-0.673 -0.582,-1.468 m -81.887,2.373 h -18.919 v -74.204 h 18.919 v 74.204 z m -29.71,-54.26 c 0,-13.306 -6.115,-19.944 -18.335,-19.944 h -17.882 c -0.201,2.555 -0.302,4.476 -0.302,5.753 0,2.273 0.101,4.586 0.302,6.959 h 9.012 c 5.611,0 8.428,3.641 8.428,10.933 v 36.508 c 0,0.986 -0.493,1.479 -1.479,1.479 h -19.813 c -0.19,1.086 -0.292,3.299 -0.292,6.658 0,2.655 0.051,4.626 0.151,5.914 h 32.083 c 5.411,0 8.127,-2.957 8.127,-8.88 v -45.38 z m -47.834,17.008 c -5.028,2.856 -11.324,4.868 -18.918,6.054 v -43.005 h 18.918 v 36.951 z m -27.638,24.68 h -15.367 c 3.842,-2.172 6.89,-6.356 9.162,-12.562 1.972,-5.32 2.957,-10.691 2.957,-16.122 0,-9.746 -2.032,-17.48 -6.065,-23.193 -4.727,-6.517 -11.928,-9.755 -21.572,-9.755 h -31.641 c -0.091,1.86 -0.142,3.932 -0.142,6.195 0,2.374 0.051,4.485 0.142,6.366 h 23.795 c 10.642,0 15.972,8.036 15.972,24.088 0,7 -1.187,12.712 -3.55,17.148 -2.756,5.22 -6.9,7.834 -12.422,7.834 h -25.425 c -0.091,1.67 -0.141,3.742 -0.141,6.206 0,2.564 0.05,4.687 0.141,6.366 h 64.156 c 0.685,-4.243 0.685,-8.427 0,-12.571 m -72.726,12.572 h -18.777 v -47.602 c 0,-9.263 -4.385,-13.89 -13.145,-13.89 h -23.947 c -0.402,-1.971 -0.593,-4.093 -0.593,-6.356 0,-2.374 0.19,-4.496 0.593,-6.356 h 30.152 c 17.148,0 25.717,8.126 25.717,24.379 v 49.825 z m -80.338,-36.669 c 0,17.339 -5.763,26.019 -17.288,26.019 -6.125,0 -10.742,-2.766 -13.9,-8.277 -2.564,-4.626 -3.852,-10.541 -3.852,-17.742 0,-16.746 5.773,-25.124 17.309,-25.124 11.818,0 17.731,8.378 17.731,25.124 m 19.219,-0.583 c 0,-10.158 -2.323,-18.526 -6.959,-25.124 -5.411,-7.896 -13.396,-11.828 -23.938,-11.828 h -43.307 c -0.493,4.425 -0.443,8.669 0.141,12.712 h 14.492 c -4.053,2.655 -7.342,6.538 -9.906,11.667 -2.564,5.129 -3.842,10.5 -3.842,16.112 0,11.436 3.49,20.356 10.49,26.753 6.607,6.215 15.377,9.313 26.32,9.313 10.631,0 19.25,-3.339 25.857,-10.047 7.092,-7.191 10.652,-17.047 10.652,-29.558 m -84.412,0 c -5.028,2.856 -11.324,4.868 -18.918,6.054 v -43.005 h 18.918 v 36.951 z m -29.116,-11.094 c 0,-8.86 -2.414,-15.619 -7.241,-20.246 -3.942,-3.751 -8.72,-5.612 -14.332,-5.612 -9.162,0 -16.564,2.454 -22.177,7.382 0.292,1.288 1.137,3.108 2.515,5.472 1.378,2.363 2.514,3.942 3.399,4.737 2.856,-2.374 5.813,-3.55 8.87,-3.55 6.407,0 9.605,4.385 9.605,13.145 v 10.651 c 0,17.038 -4.979,25.566 -14.936,25.566 -11.134,0 -16.705,-8.025 -16.705,-24.098 v -39.304 h -18.918 v 41.095 c 0,23.444 11.877,35.181 35.623,35.181 10.842,0 19.271,-3.168 25.284,-9.474 6.005,-6.296 9.012,-15.71 9.012,-28.222 V 286.17 z m -80.701,48.346 h -18.777 v -46.124 c 0,-5.712 -1.126,-9.715 -3.399,-11.968 -2.263,-2.273 -6.014,-3.399 -11.234,-3.399 h -14.332 v 40.049 c 0,7.201 -2.172,12.813 -6.507,16.856 -3.952,3.641 -8.82,5.471 -14.634,5.471 -5.229,0 -8.961,-0.503 -11.233,-1.488 0,-4.526 0.784,-8.67 2.363,-12.411 1.076,0.785 2.464,1.177 4.134,1.177 1.68,0 3.278,-0.774 4.817,-2.364 1.519,-1.569 2.283,-3.741 2.283,-6.497 V 266.81 c 0,-4.335 2.122,-6.497 6.356,-6.497 h 31.479 c 19.129,0 28.684,9.112 28.684,27.336 v 46.867 z M 886.548,321.944 H 871.18 c 3.843,-2.172 6.9,-6.356 9.163,-12.562 1.961,-5.32 2.957,-10.691 2.957,-16.122 0,-9.746 -2.022,-17.48 -6.055,-23.193 -4.737,-6.517 -11.929,-9.755 -21.594,-9.755 h -31.62 c -0.111,1.86 -0.161,3.932 -0.161,6.195 0,2.374 0.05,4.485 0.161,6.366 h 23.785 c 10.651,0 15.972,8.036 15.972,24.088 0,7 -1.177,12.712 -3.551,17.148 -2.755,5.22 -6.899,7.834 -12.421,7.834 h -25.415 c -0.101,1.67 -0.161,3.742 -0.161,6.206 0,2.564 0.061,4.687 0.161,6.366 h 64.146 c 0.695,-4.243 0.695,-8.427 10e-4,-12.571 m -72.726,12.572 h -18.768 v -47.602 c 0,-9.263 -4.385,-13.89 -13.165,-13.89 h -23.937 c -0.393,-1.971 -0.594,-4.093 -0.594,-6.356 0,-2.374 0.201,-4.496 0.594,-6.356 h 30.152 c 17.148,0 25.717,8.126 25.717,24.379 v 49.825 z m -62.013,-42.875 h -47.16 c -0.19,2.867 -0.281,4.737 -0.281,5.623 0,2.072 0.141,4.334 0.442,6.799 h 46.857 c 0.393,-3.46 0.584,-5.914 0.584,-7.402 0,-0.685 -0.142,-2.354 -0.442,-5.02 m -55.136,40.502 c 0.402,0.795 0.594,1.277 0.594,1.469 0,0.603 -0.594,0.905 -1.771,0.905 H 676.719 L 651.887,301.69 c -0.784,-0.976 -1.578,-1.469 -2.363,-1.469 -1.68,0 -3.057,1.469 -4.144,4.425 -1.378,3.359 -2.062,7.945 -2.062,13.749 v 16.122 h -18.627 v -9.031 c 0,-17.832 6.155,-29.549 18.477,-35.181 l -21.282,-27.919 c -0.302,-0.402 -0.442,-0.794 -0.442,-1.187 0,-0.604 0.493,-0.885 1.479,-0.885 h 18.918 l 24.832,32.807 c 0.784,0.986 1.67,1.469 2.655,1.469 1.488,0 2.815,-1.469 3.992,-4.425 1.277,-3.44 1.921,-8.026 1.921,-13.739 v -16.112 h 18.777 v 9.011 c 0,17.731 -6.215,29.468 -18.626,35.181 l 21.281,27.637 z m -81.888,-71.83 h -18.918 v 43.005 c 7.594,-1.187 13.89,-3.198 18.918,-6.054 v -36.951 z m -54.4,0 c 16.756,0 25.133,8.951 25.133,26.894 0,13.296 -4.485,24.711 -13.446,34.215 -8.972,9.515 -19.311,14.362 -31.048,14.563 -0.492,-2.163 -0.492,-6.356 0,-12.562 7.011,-0.694 12.984,-4.536 17.963,-11.526 4.979,-7.01 7.463,-14.734 7.463,-23.212 0,-10.45 -5.129,-15.66 -15.368,-15.66 h -13.598 c -7,0 -10.5,-4.445 -10.5,-13.316 v -22.016 h 18.777 v 18.324 c 0,2.867 1.036,4.295 3.098,4.295 h 11.526 z m -40.351,0 H 501.116 V 356.1 h 18.918 v -95.787 z"
   id="path19"
   style="fill:#42494c" />
</g>
</svg>